<svg width="38" height="22" viewBox="0 0 38 22" fill="none" xmlns="http://www.w3.org/2000/svg">
<rect y="2" width="38" height="17" rx="2" fill="#31797E"/>
<path d="M9.75708 15.12C9.15708 15.12 8.62908 15 8.17308 14.76C7.72508 14.512 7.32908 14.168 6.98508 13.728L7.58508 13.128C7.86508 13.528 8.18508 13.828 8.54508 14.028C8.90508 14.228 9.32108 14.328 9.79308 14.328C10.3131 14.328 10.7331 14.208 11.0531 13.968C11.3731 13.72 11.5331 13.376 11.5331 12.936C11.5331 12.608 11.4611 12.34 11.3171 12.132C11.1731 11.916 10.9771 11.744 10.7291 11.616C10.4891 11.48 10.2251 11.36 9.93708 11.256C9.64908 11.152 9.35708 11.044 9.06108 10.932C8.77308 10.812 8.50908 10.664 8.26908 10.488C8.02908 10.312 7.83308 10.088 7.68108 9.816C7.53708 9.544 7.46508 9.196 7.46508 8.772C7.46508 8.324 7.56908 7.94 7.77708 7.62C7.99308 7.3 8.28508 7.056 8.65308 6.888C9.02908 6.712 9.45308 6.624 9.92508 6.624C10.4211 6.624 10.8731 6.728 11.2811 6.936C11.6971 7.144 12.0411 7.424 12.3131 7.776L11.7131 8.376C11.4651 8.064 11.1931 7.824 10.8971 7.656C10.6011 7.488 10.2691 7.404 9.90108 7.404C9.42108 7.404 9.03708 7.52 8.74908 7.752C8.46108 7.976 8.31708 8.296 8.31708 8.712C8.31708 9.024 8.38908 9.276 8.53308 9.468C8.68508 9.66 8.88108 9.82 9.12108 9.948C9.36908 10.076 9.63708 10.192 9.92508 10.296C10.2211 10.392 10.5131 10.5 10.8011 10.62C11.0971 10.74 11.3651 10.892 11.6051 11.076C11.8531 11.26 12.0491 11.496 12.1931 11.784C12.3451 12.064 12.4211 12.424 12.4211 12.864C12.4211 13.576 12.1811 14.132 11.7011 14.532C11.2211 14.924 10.5731 15.12 9.75708 15.12ZM9.62508 16.2V5.544H10.2611V16.2H9.62508ZM14.1586 12.36V11.556H17.9866V12.36H14.1586ZM18.8837 14.46L21.9437 11.268C22.2957 10.892 22.5677 10.576 22.7597 10.32C22.9597 10.064 23.0957 9.832 23.1677 9.624C23.2477 9.408 23.2877 9.184 23.2877 8.952C23.2877 8.48 23.1397 8.112 22.8437 7.848C22.5477 7.576 22.1557 7.44 21.6677 7.44C21.2197 7.44 20.8277 7.548 20.4917 7.764C20.1557 7.972 19.8557 8.288 19.5917 8.712L18.9797 8.172C19.2997 7.668 19.6837 7.284 20.1317 7.02C20.5797 6.756 21.0997 6.624 21.6917 6.624C22.1877 6.624 22.6197 6.72 22.9877 6.912C23.3637 7.104 23.6517 7.376 23.8517 7.728C24.0597 8.08 24.1637 8.492 24.1637 8.964C24.1637 9.292 24.1197 9.592 24.0317 9.864C23.9437 10.128 23.7877 10.408 23.5637 10.704C23.3477 10.992 23.0397 11.344 22.6397 11.76L20.0477 14.424L18.8837 14.46ZM18.8837 15V14.46L19.6037 14.208H24.3677V15H18.8837ZM28.8682 15.12C28.2602 15.12 27.7042 14.948 27.2002 14.604C26.6962 14.252 26.2922 13.756 25.9882 13.116C25.6922 12.476 25.5442 11.724 25.5442 10.86C25.5442 9.988 25.6922 9.24 25.9882 8.616C26.2842 7.984 26.6802 7.496 27.1762 7.152C27.6802 6.8 28.2362 6.624 28.8442 6.624C29.4602 6.624 30.0162 6.796 30.5122 7.14C31.0162 7.484 31.4162 7.976 31.7122 8.616C32.0082 9.248 32.1562 10 32.1562 10.872C32.1562 11.736 32.0082 12.488 31.7122 13.128C31.4162 13.768 31.0202 14.26 30.5242 14.604C30.0282 14.948 29.4762 15.12 28.8682 15.12ZM28.8442 14.292C29.3162 14.292 29.7322 14.16 30.0922 13.896C30.4602 13.624 30.7482 13.236 30.9562 12.732C31.1642 12.22 31.2682 11.596 31.2682 10.86C31.2682 10.132 31.1642 9.516 30.9562 9.012C30.7482 8.5 30.4602 8.112 30.0922 7.848C29.7322 7.584 29.3162 7.452 28.8442 7.452C28.3802 7.452 27.9642 7.584 27.5962 7.848C27.2362 8.112 26.9522 8.496 26.7442 9C26.5362 9.504 26.4322 10.124 26.4322 10.86C26.4322 11.596 26.5362 12.22 26.7442 12.732C26.9522 13.236 27.2362 13.624 27.5962 13.896C27.9642 14.16 28.3802 14.292 28.8442 14.292Z" fill="white"/>
</svg>
