<svg width="38" height="22" viewBox="0 0 38 22" fill="none" xmlns="http://www.w3.org/2000/svg">
<rect y="2" width="38" height="17" rx="2" fill="#F04726"/>
<path d="M8.13413 15V6.744H9.01013V15H8.13413ZM13.5461 15V6.744H14.4221V15H13.5461ZM8.71013 11.136V10.332H13.7861V11.136H8.71013ZM20.2565 15.12C19.6725 15.12 19.1285 15.012 18.6245 14.796C18.1285 14.572 17.6925 14.268 17.3165 13.884C16.9405 13.492 16.6445 13.04 16.4285 12.528C16.2205 12.008 16.1165 11.452 16.1165 10.86C16.1165 10.26 16.2205 9.704 16.4285 9.192C16.6365 8.68 16.9285 8.232 17.3045 7.848C17.6805 7.464 18.1165 7.164 18.6125 6.948C19.1085 6.732 19.6485 6.624 20.2325 6.624C20.8165 6.624 21.3565 6.732 21.8525 6.948C22.3565 7.164 22.7965 7.464 23.1725 7.848C23.5485 8.232 23.8405 8.684 24.0485 9.204C24.2565 9.716 24.3605 10.272 24.3605 10.872C24.3605 11.464 24.2565 12.02 24.0485 12.54C23.8405 13.052 23.5485 13.5 23.1725 13.884C22.8045 14.268 22.3725 14.572 21.8765 14.796C21.3805 15.012 20.8405 15.12 20.2565 15.12ZM20.2325 14.268C20.8565 14.268 21.4085 14.12 21.8885 13.824C22.3765 13.528 22.7565 13.124 23.0285 12.612C23.3085 12.1 23.4485 11.516 23.4485 10.86C23.4485 10.372 23.3685 9.924 23.2085 9.516C23.0485 9.1 22.8245 8.74 22.5365 8.436C22.2485 8.124 21.9085 7.884 21.5165 7.716C21.1325 7.548 20.7045 7.464 20.2325 7.464C19.6165 7.464 19.0645 7.612 18.5765 7.908C18.0965 8.196 17.7165 8.596 17.4365 9.108C17.1645 9.62 17.0285 10.204 17.0285 10.86C17.0285 11.348 17.1085 11.8 17.2685 12.216C17.4285 12.632 17.6525 12.996 17.9405 13.308C18.2285 13.612 18.5685 13.848 18.9605 14.016C19.3525 14.184 19.7765 14.268 20.2325 14.268ZM27.6878 15V6.972H28.5758V15H27.6878ZM24.7838 7.548V6.744H31.4798V7.548H24.7838Z" fill="white"/>
</svg>
