<svg width="38" height="22" viewBox="0 0 38 22" fill="none" xmlns="http://www.w3.org/2000/svg">
<rect y="2" width="38" height="17" rx="2" fill="#F04726"/>
<path d="M8.70319 15.12C8.06319 15.12 7.51119 15 7.04719 14.76C6.58319 14.512 6.17519 14.168 5.82319 13.728L6.43519 13.128C6.71519 13.52 7.03919 13.812 7.40719 14.004C7.78319 14.196 8.22719 14.292 8.73919 14.292C9.26719 14.292 9.69519 14.172 10.0232 13.932C10.3512 13.692 10.5152 13.36 10.5152 12.936C10.5152 12.608 10.4392 12.34 10.2872 12.132C10.1352 11.916 9.93519 11.744 9.68719 11.616C9.44719 11.48 9.17919 11.36 8.88319 11.256C8.58719 11.152 8.29119 11.044 7.99519 10.932C7.70719 10.812 7.43919 10.664 7.19119 10.488C6.94319 10.312 6.74319 10.088 6.59119 9.816C6.44719 9.544 6.37519 9.196 6.37519 8.772C6.37519 8.324 6.48319 7.94 6.69919 7.62C6.91519 7.3 7.21119 7.056 7.58719 6.888C7.96319 6.712 8.39119 6.624 8.87119 6.624C9.40719 6.624 9.88319 6.728 10.2992 6.936C10.7232 7.144 11.0752 7.424 11.3552 7.776L10.7552 8.376C10.4992 8.072 10.2192 7.84 9.91519 7.68C9.61119 7.52 9.25519 7.44 8.84719 7.44C8.36719 7.44 7.98319 7.552 7.69519 7.776C7.40719 8 7.26319 8.312 7.26319 8.712C7.26319 9.024 7.33519 9.276 7.47919 9.468C7.63119 9.66 7.83119 9.82 8.07919 9.948C8.32719 10.076 8.59519 10.192 8.88319 10.296C9.17919 10.392 9.47519 10.5 9.77119 10.62C10.0672 10.74 10.3352 10.892 10.5752 11.076C10.8232 11.26 11.0232 11.496 11.1752 11.784C11.3272 12.064 11.4032 12.424 11.4032 12.864C11.4032 13.576 11.1592 14.132 10.6712 14.532C10.1912 14.924 9.53519 15.12 8.70319 15.12ZM12.1745 15L15.5585 6.744H16.2185L19.5665 15H18.6185L15.7025 7.704H16.0505L13.1105 15H12.1745ZM13.7225 12.852V12.072H18.0425V12.852H13.7225ZM20.9779 15V6.744H21.8539V15H20.9779ZM21.5539 15V14.196H26.1019V15H21.5539ZM27.6224 15V6.744H28.4984V15H27.6224ZM28.1984 15V14.196H33.0584V15H28.1984ZM28.1984 11.16V10.38H32.6744V11.16H28.1984ZM28.1984 7.548V6.744H32.9864V7.548H28.1984Z" fill="white"/>
</svg>
