<svg width="38" height="22" viewBox="0 0 38 22" fill="none" xmlns="http://www.w3.org/2000/svg">
<rect y="2" width="38" height="17" rx="2" fill="#31797E"/>
<path d="M9.70319 15.12C9.06319 15.12 8.51119 15 8.04719 14.76C7.58319 14.512 7.17519 14.168 6.82319 13.728L7.43519 13.128C7.71519 13.52 8.03919 13.812 8.40719 14.004C8.78319 14.196 9.22719 14.292 9.73919 14.292C10.2672 14.292 10.6952 14.172 11.0232 13.932C11.3512 13.692 11.5152 13.36 11.5152 12.936C11.5152 12.608 11.4392 12.34 11.2872 12.132C11.1352 11.916 10.9352 11.744 10.6872 11.616C10.4472 11.48 10.1792 11.36 9.88319 11.256C9.58719 11.152 9.29119 11.044 8.99519 10.932C8.70719 10.812 8.43919 10.664 8.19119 10.488C7.94319 10.312 7.74319 10.088 7.59119 9.816C7.44719 9.544 7.37519 9.196 7.37519 8.772C7.37519 8.324 7.48319 7.94 7.69919 7.62C7.91519 7.3 8.21119 7.056 8.58719 6.888C8.96319 6.712 9.39119 6.624 9.87119 6.624C10.4072 6.624 10.8832 6.728 11.2992 6.936C11.7232 7.144 12.0752 7.424 12.3552 7.776L11.7552 8.376C11.4992 8.072 11.2192 7.84 10.9152 7.68C10.6112 7.52 10.2552 7.44 9.84719 7.44C9.36719 7.44 8.98319 7.552 8.69519 7.776C8.40719 8 8.26319 8.312 8.26319 8.712C8.26319 9.024 8.33519 9.276 8.47919 9.468C8.63119 9.66 8.83119 9.82 9.07919 9.948C9.32719 10.076 9.59519 10.192 9.88319 10.296C10.1792 10.392 10.4752 10.5 10.7712 10.62C11.0672 10.74 11.3352 10.892 11.5752 11.076C11.8232 11.26 12.0232 11.496 12.1752 11.784C12.3272 12.064 12.4032 12.424 12.4032 12.864C12.4032 13.576 12.1592 14.132 11.6712 14.532C11.1912 14.924 10.5352 15.12 9.70319 15.12ZM13.1745 15L16.5585 6.744H17.2185L20.5665 15H19.6185L16.7025 7.704H17.0505L14.1105 15H13.1745ZM14.7225 12.852V12.072H19.0425V12.852H14.7225ZM21.9779 15V6.744H22.8539V15H21.9779ZM22.5539 15V14.196H27.1019V15H22.5539ZM28.6224 15V6.744H29.4984V15H28.6224ZM29.1984 15V14.196H34.0584V15H29.1984ZM29.1984 11.16V10.38H33.6744V11.16H29.1984ZM29.1984 7.548V6.744H33.9864V7.548H29.1984Z" fill="white"/>
</svg>
