<svg width="38" height="22" viewBox="0 0 38 22" fill="none" xmlns="http://www.w3.org/2000/svg">
<rect y="2" width="38" height="17" rx="2" fill="#31797E"/>
<path d="M10.9769 15V6.972H11.8649V15H10.9769ZM8.07291 7.548V6.744H14.7689V7.548H8.07291ZM19.319 15.12C18.735 15.12 18.191 15.012 17.687 14.796C17.191 14.572 16.755 14.268 16.379 13.884C16.003 13.492 15.707 13.04 15.491 12.528C15.283 12.008 15.179 11.452 15.179 10.86C15.179 10.26 15.283 9.704 15.491 9.192C15.699 8.68 15.991 8.232 16.367 7.848C16.743 7.464 17.179 7.164 17.675 6.948C18.171 6.732 18.711 6.624 19.295 6.624C19.879 6.624 20.419 6.732 20.915 6.948C21.419 7.164 21.859 7.464 22.235 7.848C22.611 8.232 22.903 8.684 23.111 9.204C23.319 9.716 23.423 10.272 23.423 10.872C23.423 11.464 23.319 12.02 23.111 12.54C22.903 13.052 22.611 13.5 22.235 13.884C21.867 14.268 21.435 14.572 20.939 14.796C20.443 15.012 19.903 15.12 19.319 15.12ZM19.295 14.268C19.919 14.268 20.471 14.12 20.951 13.824C21.439 13.528 21.819 13.124 22.091 12.612C22.371 12.1 22.511 11.516 22.511 10.86C22.511 10.372 22.431 9.924 22.271 9.516C22.111 9.1 21.887 8.74 21.599 8.436C21.311 8.124 20.971 7.884 20.579 7.716C20.195 7.548 19.767 7.464 19.295 7.464C18.679 7.464 18.127 7.612 17.639 7.908C17.159 8.196 16.779 8.596 16.499 9.108C16.227 9.62 16.091 10.204 16.091 10.86C16.091 11.348 16.171 11.8 16.331 12.216C16.491 12.632 16.715 12.996 17.003 13.308C17.291 13.612 17.631 13.848 18.023 14.016C18.415 14.184 18.839 14.268 19.295 14.268ZM25.6903 11.688V10.908H28.1263C28.4623 10.908 28.7623 10.84 29.0263 10.704C29.2983 10.568 29.5103 10.376 29.6623 10.128C29.8223 9.872 29.9023 9.568 29.9023 9.216C29.9023 8.864 29.8223 8.564 29.6623 8.316C29.5103 8.06 29.2983 7.864 29.0263 7.728C28.7623 7.584 28.4623 7.512 28.1263 7.512H25.6903V6.744H28.1863C28.6823 6.744 29.1263 6.848 29.5183 7.056C29.9103 7.256 30.2183 7.54 30.4423 7.908C30.6743 8.276 30.7903 8.712 30.7903 9.216C30.7903 9.712 30.6743 10.148 30.4423 10.524C30.2183 10.892 29.9103 11.18 29.5183 11.388C29.1263 11.588 28.6823 11.688 28.1863 11.688H25.6903ZM25.1263 15V6.744H26.0023V15H25.1263Z" fill="white"/>
</svg>
