<svg width="175" height="15" viewBox="0 0 175 15" fill="none" xmlns="http://www.w3.org/2000/svg">
<path d="M6.254 14.18C5.03 14.18 3.956 13.916 3.032 13.388C2.108 12.848 1.382 12.116 0.854 11.192C0.338 10.268 0.08 9.224 0.08 8.06C0.08 6.884 0.338 5.84 0.854 4.928C1.382 4.004 2.108 3.278 3.032 2.75C3.956 2.21 5.03 1.94 6.254 1.94C7.466 1.94 8.534 2.21 9.458 2.75C10.394 3.278 11.12 4.004 11.636 4.928C12.164 5.84 12.428 6.884 12.428 8.06C12.428 9.224 12.164 10.268 11.636 11.192C11.12 12.116 10.394 12.848 9.458 13.388C8.534 13.916 7.466 14.18 6.254 14.18ZM6.254 12.902C7.214 12.902 8.054 12.692 8.774 12.272C9.494 11.852 10.052 11.276 10.448 10.544C10.844 9.8 11.042 8.972 11.042 8.06C11.042 7.148 10.844 6.326 10.448 5.594C10.052 4.85 9.494 4.268 8.774 3.848C8.054 3.428 7.214 3.218 6.254 3.218C5.306 3.218 4.466 3.428 3.734 3.848C3.014 4.268 2.45 4.85 2.042 5.594C1.646 6.326 1.448 7.148 1.448 8.06C1.448 8.972 1.646 9.8 2.042 10.544C2.45 11.276 3.014 11.852 3.734 12.272C4.466 12.692 5.306 12.902 6.254 12.902ZM6.362 11.444C5.33 11.444 4.52 11.144 3.932 10.544C3.344 9.944 3.05 9.128 3.05 8.096C3.05 7.052 3.344 6.23 3.932 5.63C4.52 5.03 5.33 4.73 6.362 4.73C7.106 4.73 7.718 4.892 8.198 5.216C8.69 5.54 9.044 5.978 9.26 6.53L8 7.142C7.856 6.794 7.652 6.536 7.388 6.368C7.124 6.2 6.788 6.116 6.38 6.116C5.816 6.116 5.366 6.29 5.03 6.638C4.706 6.974 4.544 7.46 4.544 8.096C4.544 8.72 4.706 9.206 5.03 9.554C5.366 9.902 5.816 10.076 6.38 10.076C6.812 10.076 7.172 9.992 7.46 9.824C7.748 9.644 7.964 9.362 8.108 8.978L9.314 9.5C9.074 10.136 8.708 10.622 8.216 10.958C7.736 11.282 7.118 11.444 6.362 11.444ZM24.734 2.12V9.446C24.734 11.018 24.32 12.2 23.492 12.992C22.664 13.784 21.458 14.18 19.874 14.18C18.314 14.18 17.114 13.784 16.274 12.992C15.446 12.2 15.032 11.018 15.032 9.446V2.12H16.958V9.212C16.958 10.328 17.198 11.156 17.678 11.696C18.158 12.236 18.89 12.506 19.874 12.506C20.87 12.506 21.608 12.236 22.088 11.696C22.568 11.156 22.808 10.328 22.808 9.212V2.12H24.734ZM29.5418 0.95V11.48C29.5418 11.924 29.6198 12.23 29.7758 12.398C29.9318 12.566 30.1898 12.65 30.5498 12.65C30.7658 12.65 30.9458 12.638 31.0898 12.614C31.2458 12.578 31.4378 12.518 31.6658 12.434L31.4498 13.874C31.2458 13.97 31.0118 14.042 30.7478 14.09C30.4838 14.15 30.2198 14.18 29.9558 14.18C29.1518 14.18 28.5578 13.976 28.1738 13.568C27.8018 13.148 27.6158 12.506 27.6158 11.642V0.95H29.5418ZM34.2492 3.488C33.8292 3.488 33.5052 3.386 33.2772 3.182C33.0612 2.966 32.9532 2.666 32.9532 2.282C32.9532 1.898 33.0612 1.604 33.2772 1.4C33.5052 1.196 33.8292 1.094 34.2492 1.094C34.6572 1.094 34.9692 1.196 35.1852 1.4C35.4132 1.604 35.5272 1.898 35.5272 2.282C35.5272 2.666 35.4132 2.966 35.1852 3.182C34.9692 3.386 34.6572 3.488 34.2492 3.488ZM35.2032 5V14H33.2772V5H35.2032ZM38.2167 14V5H39.9267L40.0527 7.34L39.8007 7.088C39.9687 6.572 40.2087 6.146 40.5207 5.81C40.8447 5.462 41.2227 5.21 41.6547 5.054C42.0987 4.898 42.5667 4.82 43.0587 4.82C43.6947 4.82 44.2647 4.946 44.7687 5.198C45.2847 5.438 45.6927 5.804 45.9927 6.296C46.2927 6.788 46.4427 7.412 46.4427 8.168V14H44.5167V8.762C44.5167 7.874 44.3307 7.262 43.9587 6.926C43.5987 6.578 43.1427 6.404 42.5907 6.404C42.1947 6.404 41.8107 6.5 41.4387 6.692C41.0667 6.872 40.7547 7.166 40.5027 7.574C40.2627 7.982 40.1427 8.528 40.1427 9.212V14H38.2167ZM54.5632 8.222C54.5632 7.622 54.3952 7.16 54.0592 6.836C53.7352 6.5 53.2852 6.332 52.7092 6.332C52.1692 6.332 51.7072 6.458 51.3232 6.71C50.9392 6.962 50.6572 7.37 50.4772 7.934L48.8572 7.25C49.0852 6.518 49.5292 5.93 50.1892 5.486C50.8612 5.042 51.7252 4.82 52.7812 4.82C53.5012 4.82 54.1372 4.94 54.6892 5.18C55.2412 5.408 55.6732 5.756 55.9852 6.224C56.3092 6.692 56.4712 7.292 56.4712 8.024V12.038C56.4712 12.482 56.6932 12.704 57.1372 12.704C57.3532 12.704 57.5632 12.674 57.7672 12.614L57.6592 13.946C57.3832 14.078 57.0352 14.144 56.6152 14.144C56.2312 14.144 55.8832 14.078 55.5712 13.946C55.2712 13.802 55.0312 13.592 54.8512 13.316C54.6832 13.028 54.5992 12.674 54.5992 12.254V12.128L54.9952 12.11C54.8872 12.578 54.6652 12.968 54.3292 13.28C53.9932 13.58 53.6032 13.808 53.1592 13.964C52.7152 14.108 52.2652 14.18 51.8092 14.18C51.2452 14.18 50.7352 14.09 50.2792 13.91C49.8352 13.73 49.4812 13.46 49.2172 13.1C48.9652 12.728 48.8392 12.272 48.8392 11.732C48.8392 11.06 49.0552 10.508 49.4872 10.076C49.9312 9.644 50.5552 9.35 51.3592 9.194L54.8512 8.51L54.8332 9.86L52.2952 10.382C51.7912 10.478 51.4132 10.616 51.1612 10.796C50.9092 10.976 50.7832 11.24 50.7832 11.588C50.7832 11.924 50.9092 12.194 51.1612 12.398C51.4252 12.59 51.7732 12.686 52.2052 12.686C52.5052 12.686 52.7932 12.65 53.0692 12.578C53.3572 12.506 53.6152 12.392 53.8432 12.236C54.0712 12.068 54.2452 11.858 54.3652 11.606C54.4972 11.342 54.5632 11.03 54.5632 10.67V8.222ZM70.3308 1.94C71.4828 1.94 72.4788 2.186 73.3188 2.678C74.1588 3.17 74.8068 3.872 75.2628 4.784C75.7188 5.696 75.9468 6.788 75.9468 8.06C75.9468 9.332 75.7188 10.424 75.2628 11.336C74.8068 12.248 74.1588 12.95 73.3188 13.442C72.4788 13.934 71.4828 14.18 70.3308 14.18C69.1908 14.18 68.2008 13.934 67.3608 13.442C66.5208 12.95 65.8728 12.248 65.4168 11.336C64.9608 10.424 64.7328 9.332 64.7328 8.06C64.7328 6.788 64.9608 5.696 65.4168 4.784C65.8728 3.872 66.5208 3.17 67.3608 2.678C68.2008 2.186 69.1908 1.94 70.3308 1.94ZM70.3308 3.614C69.5868 3.614 68.9448 3.788 68.4048 4.136C67.8768 4.484 67.4688 4.988 67.1808 5.648C66.8928 6.308 66.7488 7.112 66.7488 8.06C66.7488 8.996 66.8928 9.8 67.1808 10.472C67.4688 11.132 67.8768 11.636 68.4048 11.984C68.9448 12.332 69.5868 12.506 70.3308 12.506C71.0868 12.506 71.7288 12.332 72.2568 11.984C72.7968 11.636 73.2108 11.132 73.4988 10.472C73.7868 9.8 73.9308 8.996 73.9308 8.06C73.9308 7.112 73.7868 6.308 73.4988 5.648C73.2108 4.988 72.7968 4.484 72.2568 4.136C71.7288 3.788 71.0868 3.614 70.3308 3.614ZM82.3569 0.823999C82.7289 0.823999 83.0649 0.865999 83.3649 0.95C83.6769 1.022 83.9109 1.124 84.0669 1.256L83.7069 2.642C83.5749 2.558 83.4249 2.498 83.2569 2.462C83.0889 2.414 82.8969 2.39 82.6809 2.39C82.1889 2.39 81.7989 2.504 81.5109 2.732C81.2349 2.96 81.0969 3.332 81.0969 3.848V5.162L81.1509 5.648V14H79.2249V3.704C79.2249 3.248 79.2909 2.84 79.4229 2.48C79.5669 2.12 79.7769 1.82 80.0529 1.58C80.3289 1.328 80.6589 1.142 81.0429 1.022C81.4389 0.889999 81.8769 0.823999 82.3569 0.823999ZM84.0129 5V6.512H77.5329V5H84.0129ZM89.4849 0.823999C89.8569 0.823999 90.1929 0.865999 90.4929 0.95C90.8049 1.022 91.0389 1.124 91.1949 1.256L90.8349 2.642C90.7029 2.558 90.5529 2.498 90.3849 2.462C90.2169 2.414 90.0249 2.39 89.8089 2.39C89.3169 2.39 88.9269 2.504 88.6389 2.732C88.3629 2.96 88.2249 3.332 88.2249 3.848V5.162L88.2789 5.648V14H86.3529V3.704C86.3529 3.248 86.4189 2.84 86.5509 2.48C86.6949 2.12 86.9049 1.82 87.1809 1.58C87.4569 1.328 87.7869 1.142 88.1709 1.022C88.5669 0.889999 89.0049 0.823999 89.4849 0.823999ZM91.1409 5V6.512H84.6609V5H91.1409ZM93.8229 3.488C93.4029 3.488 93.0789 3.386 92.8509 3.182C92.6349 2.966 92.5269 2.666 92.5269 2.282C92.5269 1.898 92.6349 1.604 92.8509 1.4C93.0789 1.196 93.4029 1.094 93.8229 1.094C94.2309 1.094 94.5429 1.196 94.7589 1.4C94.9869 1.604 95.1009 1.898 95.1009 2.282C95.1009 2.666 94.9869 2.966 94.7589 3.182C94.5429 3.386 94.2309 3.488 93.8229 3.488ZM94.7769 5V14H92.8509V5H94.7769ZM101.677 4.82C102.397 4.82 103.009 4.928 103.513 5.144C104.029 5.348 104.461 5.642 104.809 6.026C105.157 6.41 105.421 6.848 105.601 7.34L103.783 8.06C103.627 7.508 103.375 7.088 103.027 6.8C102.691 6.5 102.247 6.35 101.695 6.35C101.155 6.35 100.693 6.476 100.309 6.728C99.9249 6.968 99.6309 7.322 99.4269 7.79C99.2349 8.258 99.1389 8.834 99.1389 9.518C99.1389 10.19 99.2409 10.76 99.4449 11.228C99.6489 11.696 99.9429 12.05 100.327 12.29C100.711 12.53 101.167 12.65 101.695 12.65C102.103 12.65 102.457 12.584 102.757 12.452C103.057 12.308 103.303 12.11 103.495 11.858C103.699 11.594 103.837 11.276 103.909 10.904L105.655 11.498C105.487 12.038 105.223 12.512 104.863 12.92C104.515 13.316 104.077 13.628 103.549 13.856C103.021 14.072 102.415 14.18 101.731 14.18C100.843 14.18 100.057 13.994 99.3729 13.622C98.6889 13.25 98.1549 12.716 97.7709 12.02C97.3989 11.312 97.2129 10.472 97.2129 9.5C97.2129 8.528 97.3989 7.694 97.7709 6.998C98.1549 6.29 98.6829 5.75 99.3549 5.378C100.039 5.006 100.813 4.82 101.677 4.82ZM108.868 3.488C108.448 3.488 108.124 3.386 107.896 3.182C107.68 2.966 107.572 2.666 107.572 2.282C107.572 1.898 107.68 1.604 107.896 1.4C108.124 1.196 108.448 1.094 108.868 1.094C109.276 1.094 109.588 1.196 109.804 1.4C110.032 1.604 110.146 1.898 110.146 2.282C110.146 2.666 110.032 2.966 109.804 3.182C109.588 3.386 109.276 3.488 108.868 3.488ZM109.822 5V14H107.896V5H109.822ZM118.038 8.222C118.038 7.622 117.87 7.16 117.534 6.836C117.21 6.5 116.76 6.332 116.184 6.332C115.644 6.332 115.182 6.458 114.798 6.71C114.414 6.962 114.132 7.37 113.952 7.934L112.332 7.25C112.56 6.518 113.004 5.93 113.664 5.486C114.336 5.042 115.2 4.82 116.256 4.82C116.976 4.82 117.612 4.94 118.164 5.18C118.716 5.408 119.148 5.756 119.46 6.224C119.784 6.692 119.946 7.292 119.946 8.024V12.038C119.946 12.482 120.168 12.704 120.612 12.704C120.828 12.704 121.038 12.674 121.242 12.614L121.134 13.946C120.858 14.078 120.51 14.144 120.09 14.144C119.706 14.144 119.358 14.078 119.046 13.946C118.746 13.802 118.506 13.592 118.326 13.316C118.158 13.028 118.074 12.674 118.074 12.254V12.128L118.47 12.11C118.362 12.578 118.14 12.968 117.804 13.28C117.468 13.58 117.078 13.808 116.634 13.964C116.19 14.108 115.74 14.18 115.284 14.18C114.72 14.18 114.21 14.09 113.754 13.91C113.31 13.73 112.956 13.46 112.692 13.1C112.44 12.728 112.314 12.272 112.314 11.732C112.314 11.06 112.53 10.508 112.962 10.076C113.406 9.644 114.03 9.35 114.834 9.194L118.326 8.51L118.308 9.86L115.77 10.382C115.266 10.478 114.888 10.616 114.636 10.796C114.384 10.976 114.258 11.24 114.258 11.588C114.258 11.924 114.384 12.194 114.636 12.398C114.9 12.59 115.248 12.686 115.68 12.686C115.98 12.686 116.268 12.65 116.544 12.578C116.832 12.506 117.09 12.392 117.318 12.236C117.546 12.068 117.72 11.858 117.84 11.606C117.972 11.342 118.038 11.03 118.038 10.67V8.222ZM124.973 0.95V11.48C124.973 11.924 125.051 12.23 125.207 12.398C125.363 12.566 125.621 12.65 125.981 12.65C126.197 12.65 126.377 12.638 126.521 12.614C126.677 12.578 126.869 12.518 127.097 12.434L126.881 13.874C126.677 13.97 126.443 14.042 126.179 14.09C125.915 14.15 125.651 14.18 125.387 14.18C124.583 14.18 123.989 13.976 123.605 13.568C123.233 13.148 123.047 12.506 123.047 11.642V0.95H124.973ZM133.801 14V12.596C134.941 11.78 135.895 11.06 136.663 10.436C137.443 9.812 138.067 9.236 138.535 8.708C139.003 8.18 139.339 7.682 139.543 7.214C139.759 6.734 139.867 6.248 139.867 5.756C139.867 5.12 139.669 4.604 139.273 4.208C138.877 3.812 138.325 3.614 137.617 3.614C136.873 3.614 136.279 3.866 135.835 4.37C135.403 4.862 135.157 5.54 135.097 6.404L133.423 5.63C133.507 4.874 133.729 4.22 134.089 3.668C134.449 3.116 134.935 2.69 135.547 2.39C136.171 2.09 136.891 1.94 137.707 1.94C138.379 1.94 138.967 2.036 139.471 2.228C139.987 2.42 140.419 2.69 140.767 3.038C141.115 3.374 141.379 3.77 141.559 4.226C141.751 4.682 141.847 5.168 141.847 5.684C141.847 6.44 141.661 7.172 141.289 7.88C140.917 8.576 140.329 9.29 139.525 10.022C138.721 10.754 137.665 11.54 136.357 12.38V12.416C136.501 12.392 136.699 12.38 136.951 12.38C137.203 12.368 137.455 12.362 137.707 12.362C137.959 12.35 138.163 12.344 138.319 12.344H142.063V14H133.801ZM148.757 14.18C147.329 14.18 146.207 13.664 145.391 12.632C144.587 11.588 144.185 10.064 144.185 8.06C144.185 6.056 144.587 4.538 145.391 3.506C146.207 2.462 147.329 1.94 148.757 1.94C150.197 1.94 151.319 2.462 152.123 3.506C152.939 4.538 153.347 6.056 153.347 8.06C153.347 10.064 152.939 11.588 152.123 12.632C151.319 13.664 150.197 14.18 148.757 14.18ZM148.757 12.542C149.333 12.542 149.813 12.38 150.197 12.056C150.593 11.72 150.887 11.222 151.079 10.562C151.283 9.89 151.385 9.056 151.385 8.06C151.385 7.064 151.283 6.236 151.079 5.576C150.887 4.904 150.593 4.406 150.197 4.082C149.813 3.746 149.333 3.578 148.757 3.578C148.181 3.578 147.695 3.746 147.299 4.082C146.915 4.406 146.627 4.904 146.435 5.576C146.243 6.236 146.147 7.064 146.147 8.06C146.147 9.056 146.243 9.89 146.435 10.562C146.627 11.222 146.915 11.72 147.299 12.056C147.695 12.38 148.181 12.542 148.757 12.542ZM155.668 14V12.596C156.808 11.78 157.762 11.06 158.53 10.436C159.31 9.812 159.934 9.236 160.402 8.708C160.87 8.18 161.206 7.682 161.41 7.214C161.626 6.734 161.734 6.248 161.734 5.756C161.734 5.12 161.536 4.604 161.14 4.208C160.744 3.812 160.192 3.614 159.484 3.614C158.74 3.614 158.146 3.866 157.702 4.37C157.27 4.862 157.024 5.54 156.964 6.404L155.29 5.63C155.374 4.874 155.596 4.22 155.956 3.668C156.316 3.116 156.802 2.69 157.414 2.39C158.038 2.09 158.758 1.94 159.574 1.94C160.246 1.94 160.834 2.036 161.338 2.228C161.854 2.42 162.286 2.69 162.634 3.038C162.982 3.374 163.246 3.77 163.426 4.226C163.618 4.682 163.714 5.168 163.714 5.684C163.714 6.44 163.528 7.172 163.156 7.88C162.784 8.576 162.196 9.29 161.392 10.022C160.588 10.754 159.532 11.54 158.224 12.38V12.416C158.368 12.392 158.566 12.38 158.818 12.38C159.07 12.368 159.322 12.362 159.574 12.362C159.826 12.35 160.03 12.344 160.186 12.344H163.93V14H155.668ZM166.233 14V12.596C167.373 11.78 168.327 11.06 169.095 10.436C169.875 9.812 170.499 9.236 170.967 8.708C171.435 8.18 171.771 7.682 171.975 7.214C172.191 6.734 172.299 6.248 172.299 5.756C172.299 5.12 172.101 4.604 171.705 4.208C171.309 3.812 170.757 3.614 170.049 3.614C169.305 3.614 168.711 3.866 168.267 4.37C167.835 4.862 167.589 5.54 167.529 6.404L165.855 5.63C165.939 4.874 166.161 4.22 166.521 3.668C166.881 3.116 167.367 2.69 167.979 2.39C168.603 2.09 169.323 1.94 170.139 1.94C170.811 1.94 171.399 2.036 171.903 2.228C172.419 2.42 172.851 2.69 173.199 3.038C173.547 3.374 173.811 3.77 173.991 4.226C174.183 4.682 174.279 5.168 174.279 5.684C174.279 6.44 174.093 7.172 173.721 7.88C173.349 8.576 172.761 9.29 171.957 10.022C171.153 10.754 170.097 11.54 168.789 12.38V12.416C168.933 12.392 169.131 12.38 169.383 12.38C169.635 12.368 169.887 12.362 170.139 12.362C170.391 12.35 170.595 12.344 170.751 12.344H174.495V14H166.233Z" fill="#707686"/>
</svg>
